<?xml version="1.0" standalone="no"?>
<!DOCTYPE svg PUBLIC "-//W3C//DTD SVG 20010904//EN"
 "http://www.w3.org/TR/2001/REC-SVG-20010904/DTD/svg10.dtd">
<svg version="1.0" xmlns="http://www.w3.org/2000/svg"
 width="1622.000000pt" height="563.000000pt" viewBox="0 0 1622.000000 563.000000"
 preserveAspectRatio="xMidYMid meet">

<g transform="translate(0.000000,563.000000) scale(0.100000,-0.100000)"
fill="#000000" stroke="none">
<path d="M0 2815 l0 -2815 8093 0 c7829 0 8094 1 8110 18 16 17 17 227 17
2815 l0 2797 -8110 0 -8110 0 0 -2815z m7703 1831 c107 -21 206 -74 287 -154
36 -37 74 -78 83 -92 16 -24 17 -25 29 -5 25 43 135 148 188 180 165 100 366
109 546 24 92 -44 209 -159 253 -249 47 -97 61 -161 61 -281 0 -320 -141 -628
-415 -905 -188 -189 -374 -314 -568 -379 -89 -29 -101 -28 -236 29 -174 73
-338 192 -506 368 -261 272 -395 574 -395 892 0 183 44 293 169 417 140 140
309 192 504 155z m-655 -2121 c74 -44 101 -146 60 -225 -33 -64 -72 -83 -180
-88 l-88 -4 0 -99 0 -99 -40 0 -40 0 0 271 0 271 128 -4 c103 -3 133 -7 160
-23z m384 -172 c4 -214 9 -238 58 -266 52 -31 135 -16 167 31 16 23 18 54 21
230 l3 202 35 0 34 0 0 -205 c0 -151 -4 -214 -14 -238 -29 -70 -117 -114 -208
-104 -62 8 -101 29 -135 74 l-28 36 -3 219 -3 218 35 0 34 0 4 -197z m676 -40
l2 -233 90 0 90 0 0 -35 0 -35 -130 0 -130 0 0 263 c0 145 3 267 7 271 4 4 21
6 38 4 l30 -3 3 -232z m659 222 c45 -19 70 -41 90 -79 16 -31 11 -40 -29 -50
-22 -5 -29 -1 -46 28 -15 25 -30 36 -66 45 -81 20 -146 -13 -146 -74 0 -43 21
-59 120 -89 145 -44 195 -91 187 -175 -9 -80 -67 -129 -165 -138 -82 -7 -138
11 -189 62 -41 41 -57 85 -30 85 6 0 22 3 34 6 17 5 25 -1 37 -25 22 -41 64
-61 131 -61 46 0 60 4 80 25 27 26 32 70 12 96 -17 22 -61 43 -132 64 -33 9
-77 26 -97 38 -96 53 -86 192 17 238 50 23 142 25 192 4z m653 -20 l0 -35
-105 0 -105 0 0 -85 0 -85 96 0 95 0 -3 -32 -3 -33 -92 -3 -93 -3 0 -79 0 -80
105 0 105 0 0 -35 0 -35 -145 0 -145 0 0 270 0 270 145 0 145 0 0 -35z m-956
-639 c62 -19 118 -58 151 -106 30 -44 28 -52 -15 -70 -29 -12 -32 -11 -68 27
-53 57 -95 76 -172 76 -112 1 -185 -53 -216 -160 -18 -62 -14 -128 13 -194 34
-86 146 -141 246 -119 62 13 92 30 133 77 30 34 32 35 68 23 20 -6 36 -17 36
-24 0 -19 -69 -95 -109 -120 -80 -51 -221 -59 -313 -19 -60 27 -115 84 -146
152 -22 47 -26 71 -26 146 -1 77 3 98 26 147 67 145 230 213 392 164z m-1294
-36 l0 -40 -80 0 -80 0 0 -275 0 -275 -45 0 -45 0 0 275 0 275 -80 0 -80 0 0
40 0 40 205 0 205 0 0 -40z m620 0 l0 -40 -130 0 -130 0 0 -95 0 -94 113 -3
112 -3 0 -40 0 -40 -112 -3 -113 -3 0 -94 0 -95 130 0 130 0 0 -40 0 -40 -175
0 -175 0 0 315 0 315 175 0 175 0 0 -40z m1230 -95 l0 -135 155 0 155 0 0 135
0 135 45 0 45 0 0 -315 0 -315 -45 0 -45 0 0 140 0 140 -155 0 -155 0 0 -140
0 -140 -45 0 -45 0 0 315 0 315 45 0 45 0 0 -135z m400 -860 l0 -25 -1330 0
-1330 0 0 25 0 25 1330 0 1330 0 0 -25z"/>
<path d="M8235 3785 c-43 -74 -81 -132 -84 -129 -3 2 -28 61 -56 130 -38 93
-54 122 -62 112 -5 -7 -37 -65 -71 -128 -94 -177 -75 -176 -175 -10 l-86 143
-63 -127 c-34 -69 -65 -126 -68 -126 -3 0 -29 44 -59 97 l-54 97 -58 -115
c-54 -107 -57 -112 -64 -84 -25 105 -33 105 -12 0 l13 -60 58 108 c32 60 59
107 61 105 2 -2 26 -52 53 -112 l50 -108 60 108 c34 60 64 115 69 122 5 9 35
-40 88 -147 44 -89 82 -161 85 -161 3 0 38 57 79 125 40 69 77 125 81 125 4 0
32 -54 61 -120 29 -66 56 -117 60 -113 4 5 40 68 79 141 40 73 76 134 80 137
5 3 47 -58 94 -136 l85 -142 63 127 c34 69 65 126 69 126 3 0 18 -24 34 -52
15 -29 39 -73 53 -97 l25 -44 49 98 c27 53 48 99 45 101 -2 2 -22 -32 -46 -76
-23 -44 -44 -80 -45 -80 -1 0 -24 49 -51 110 -26 60 -52 107 -56 104 -4 -2
-35 -57 -70 -121 l-62 -117 -81 162 c-44 89 -83 162 -86 162 -3 0 -41 -61 -85
-135z"/>
<path d="M8831 3811 c-7 -13 -8 -21 -2 -17 6 4 13 -5 17 -21 13 -57 22 -88 23
-73 0 8 -6 42 -13 75 -12 57 -13 59 -25 36z"/>
<path d="M7267 3774 c-35 -19 -35 -27 0 -13 20 7 28 6 35 -3 4 -7 8 -8 8 -3 0
26 -15 33 -43 19z"/>
<path d="M8916 3664 c-24 -13 -30 -14 -37 -2 -5 7 -9 9 -9 3 0 -29 16 -33 48
-13 17 11 32 22 32 24 0 6 -2 5 -34 -12z"/>
<path d="M6840 2381 l0 -101 76 0 c70 0 78 2 105 29 38 39 40 97 5 138 -22 25
-31 28 -105 31 l-81 4 0 -101z"/>
</g>
</svg>
