<?xml version="1.0" standalone="no"?>
<!DOCTYPE svg PUBLIC "-//W3C//DTD SVG 20010904//EN"
 "http://www.w3.org/TR/2001/REC-SVG-20010904/DTD/svg10.dtd">
<svg version="1.0" xmlns="http://www.w3.org/2000/svg"
 width="2957.000000pt" height="1280.000000pt" viewBox="0 0 2957.000000 1280.000000"
 preserveAspectRatio="xMidYMid meet">

<g transform="translate(0.000000,1280.000000) scale(0.100000,-0.100000)"
fill="#000000" stroke="none">
<path d="M5645 8186 c-285 -57 -514 -208 -666 -437 -53 -79 -116 -232 -136
-329 -20 -99 -20 -331 1 -482 94 -678 611 -1388 1309 -1797 199 -116 410 -201
502 -201 164 0 542 191 845 428 152 119 195 159 328 302 315 340 513 688 608
1070 91 363 84 620 -20 862 -52 119 -93 182 -179 274 -143 151 -290 240 -482
290 -289 75 -572 18 -823 -166 -78 -57 -179 -164 -227 -240 -35 -56 -55 -52
-108 23 -52 72 -181 200 -247 243 -138 92 -247 135 -410 159 -111 17 -211 17
-295 1z m1505 -1408 c39 -79 90 -179 111 -223 22 -44 47 -96 57 -115 9 -19 24
-35 32 -35 15 0 128 185 181 297 18 37 38 69 45 72 13 5 100 -162 150 -287 21
-53 48 -68 70 -40 14 17 15 17 8 -6 -11 -41 -33 -89 -43 -96 -9 -5 -53 53 -69
93 -4 9 -31 61 -61 115 -56 104 -73 115 -98 67 -7 -14 -49 -100 -93 -191 -43
-91 -86 -171 -94 -178 -17 -14 -31 2 -94 106 -126 210 -198 326 -209 335 -22
18 -12 35 -245 -399 -22 -40 -45 -73 -51 -73 -11 0 -41 59 -151 303 -51 114
-66 113 -136 -13 -83 -150 -179 -295 -197 -298 -16 -2 -41 39 -145 245 -151
300 -147 297 -220 158 -26 -49 -54 -104 -62 -122 -23 -51 -85 -143 -96 -143
-6 0 -46 74 -89 164 -44 90 -84 167 -90 170 -5 4 -25 -16 -43 -44 -43 -65 -48
-47 -10 33 16 34 32 70 36 80 6 20 29 22 44 5 5 -7 36 -62 67 -123 69 -130 93
-167 108 -162 6 2 56 93 111 203 56 109 106 199 113 199 6 0 25 -19 42 -42 30
-42 198 -318 227 -375 26 -50 50 -35 107 73 185 342 201 370 215 367 10 -2 47
-79 96 -200 45 -109 86 -202 92 -208 7 -7 47 49 134 192 132 217 146 238 165
238 7 0 45 -64 85 -142z m820 -48 c0 -5 -4 -10 -10 -10 -5 0 -10 5 -10 10 0 6
5 10 10 10 6 0 10 -4 10 -10z m-2680 -55 c0 -10 -10 -15 -27 -15 -26 0 -26 1
-7 15 25 19 34 19 34 0z m177 -117 c-3 -8 -6 -5 -6 6 -1 11 2 17 5 13 3 -3 4
-12 1 -19z m2404 5 c-12 -23 -44 -61 -39 -48 12 31 33 65 40 65 5 0 4 -8 -1
-17z m-2544 -45 c-2 -13 -4 -5 -4 17 -1 22 1 32 4 23 2 -10 2 -28 0 -40z m119
-15 c-10 -10 -19 5 -10 18 6 11 8 11 12 0 2 -7 1 -15 -2 -18z m-16 -20 c0 -5
-5 -15 -10 -23 -8 -12 -10 -11 -10 8 0 12 5 22 10 22 6 0 10 -3 10 -7z m2700
-3 c0 -5 -4 -10 -10 -10 -5 0 -10 5 -10 10 0 6 5 10 10 10 6 0 10 -4 10 -10z
m-2760 -66 c14 -16 4 -52 -10 -38 -5 5 -12 32 -15 59 -4 40 -3 44 4 22 5 -16
15 -35 21 -43z m2695 30 c-26 -14 -45 -11 -45 6 0 4 16 8 36 8 l36 0 -27 -14z"/>
<path d="M9588 7670 l-23 -6 -3 -1088 c-1 -796 1 -1092 9 -1102 16 -20 427
-20 453 -1 16 12 17 43 19 390 2 324 4 379 17 387 8 6 129 10 275 10 164 0
299 6 365 14 330 44 551 242 605 541 31 170 11 342 -55 480 -49 102 -127 188
-227 252 -139 88 -238 114 -458 119 -280 7 -953 9 -977 4z m1032 -383 c73 -19
107 -37 152 -84 60 -62 82 -123 83 -228 0 -162 -48 -245 -177 -306 l-73 -34
-274 -3 c-219 -3 -276 -1 -282 10 -5 7 -9 151 -9 319 0 331 0 334 55 343 63
10 470 -3 525 -17z"/>
<path d="M13490 7672 c-19 -2 -38 -9 -42 -15 -13 -21 -10 -2168 3 -2183 15
-19 399 -20 417 -2 9 9 12 266 12 1094 0 913 -2 1083 -14 1093 -14 12 -299 21
-376 13z"/>
<path d="M17873 7672 l-313 -2 -6 -25 c-3 -14 -4 -98 -2 -187 4 -142 7 -163
23 -174 15 -11 83 -14 320 -14 221 0 304 -3 313 -12 9 -9 12 -221 12 -895 0
-862 0 -883 19 -893 29 -15 434 -13 449 2 9 9 12 220 12 889 0 784 2 879 16
893 13 14 56 16 318 16 221 0 305 3 314 12 17 17 17 377 0 383 -16 6 -1050 11
-1475 7z"/>
<path d="M22828 7670 l-23 -6 0 -1099 0 -1100 204 -3 c136 -2 208 1 215 8 7 7
13 177 16 518 5 500 5 508 28 572 44 121 117 181 248 203 114 20 224 -16 281
-91 66 -87 75 -183 71 -750 -3 -385 -1 -444 12 -452 24 -15 383 -13 404 3 17
12 17 46 13 587 -3 499 -6 585 -21 649 -35 148 -112 262 -223 326 -103 61
-324 84 -470 50 -89 -20 -194 -86 -270 -168 -29 -32 -57 -57 -62 -57 -18 0
-24 157 -18 466 5 238 4 315 -6 327 -10 14 -40 17 -194 19 -100 2 -192 1 -205
-2z"/>
<path d="M14775 7099 c-148 -12 -241 -33 -325 -75 -129 -65 -217 -178 -246
-316 -45 -210 36 -364 238 -451 86 -37 246 -87 278 -87 26 0 235 -54 305 -79
144 -51 204 -143 161 -244 -32 -76 -124 -126 -247 -134 -185 -13 -324 65 -365
204 -11 39 -21 54 -37 58 -12 3 -101 4 -197 3 l-175 -3 -3 -34 c-5 -46 23
-142 61 -214 42 -80 134 -163 237 -214 141 -69 248 -87 485 -81 140 4 186 9
261 30 225 61 375 204 415 395 18 91 7 221 -25 287 -74 152 -263 246 -621 310
-256 46 -376 132 -345 248 23 81 102 120 245 121 166 1 230 -33 292 -153 l28
-55 190 0 190 0 -3 50 c-5 80 -61 186 -135 259 -76 74 -199 139 -297 155 -121
20 -209 31 -232 30 -13 -1 -72 -6 -133 -10z"/>
<path d="M16547 7098 c-49 -4 -120 -17 -157 -28 -88 -26 -220 -99 -293 -162
-109 -95 -217 -290 -253 -458 -18 -85 -18 -285 0 -380 36 -183 128 -349 252
-455 157 -133 315 -185 559 -185 148 0 289 29 378 78 67 36 174 127 220 187
44 58 117 199 117 226 0 34 -34 41 -197 37 l-156 -3 -21 -29 c-79 -110 -167
-163 -294 -177 -194 -22 -327 42 -401 192 -36 74 -52 179 -31 204 11 13 83 15
566 15 507 0 554 1 570 17 14 15 16 30 10 107 -24 314 -147 558 -347 692 -155
103 -311 139 -522 122z m142 -318 c126 -21 209 -87 252 -202 12 -33 23 -79 23
-102 l1 -41 -341 -3 c-400 -3 -378 -9 -351 94 17 65 61 143 101 177 31 27 125
68 176 77 64 11 68 11 139 0z"/>
<path d="M19883 7100 c-147 -16 -253 -54 -380 -140 -168 -112 -305 -340 -334
-555 -14 -108 -6 -293 16 -385 34 -140 140 -321 237 -405 147 -127 325 -186
564 -186 319 -1 541 124 673 381 51 99 57 126 32 140 -26 13 -289 13 -329 -1
-17 -6 -34 -18 -37 -28 -10 -33 -89 -102 -151 -132 -109 -54 -274 -57 -379 -8
-115 54 -194 186 -195 325 0 35 4 43 23 48 12 3 263 6 558 6 433 0 539 3 554
14 16 12 18 24 12 127 -12 233 -101 453 -238 589 -91 90 -205 157 -317 186
-45 12 -218 36 -232 33 -3 -1 -38 -5 -77 -9z m202 -336 c72 -22 125 -62 161
-122 35 -58 70 -172 61 -196 -6 -14 -47 -16 -344 -16 -186 0 -344 4 -352 9
-20 13 -8 92 24 157 77 157 258 225 450 168z"/>
<path d="M21610 7090 c-90 -13 -180 -46 -260 -95 -171 -105 -279 -254 -346
-480 -24 -82 -27 -105 -28 -265 -1 -192 8 -239 74 -386 97 -215 294 -371 535
-423 97 -22 344 -17 435 8 158 44 290 128 372 238 88 120 175 355 138 378 -21
13 -378 9 -394 -4 -8 -7 -19 -32 -24 -57 -21 -98 -99 -190 -199 -236 -62 -28
-212 -29 -273 -1 -87 39 -147 109 -200 233 -20 48 -24 76 -28 221 -5 193 4
251 55 347 54 103 95 147 170 184 59 29 76 33 143 32 85 -2 173 -28 226 -69
21 -16 48 -57 76 -113 41 -84 44 -87 83 -94 63 -11 324 -9 346 2 10 6 19 18
19 27 0 34 -34 150 -61 212 -38 85 -156 202 -259 259 -120 65 -198 83 -385 87
-88 2 -185 0 -215 -5z"/>
<path d="M11596 7044 c-10 -26 -6 -1093 4 -1166 27 -184 115 -330 236 -391
106 -53 150 -62 299 -62 137 0 165 4 273 42 49 17 179 117 213 163 38 50 47
39 51 -60 2 -67 7 -93 18 -100 23 -15 373 -13 388 2 17 17 17 1559 0 1576 -9
9 -70 12 -215 12 -202 0 -203 0 -208 -22 -2 -13 -6 -243 -7 -513 l-3 -490 -30
-75 c-54 -136 -144 -194 -300 -195 -155 0 -238 60 -278 205 -5 19 -12 271 -16
560 l-6 525 -206 3 c-182 2 -207 0 -213 -14z"/>
</g>
</svg>
